<svg width="17" height="8" viewBox="0 0 17 8" fill="none" xmlns="http://www.w3.org/2000/svg">
<path d="M14.4598 5.10249C14.4598 6.06804 11.7608 6.85076 8.43144 6.85076C5.10207 6.85076 2.40308 6.06804 2.40308 5.10249C2.40308 4.13695 5.10207 3.35422 8.43144 3.35422C11.7608 3.35422 14.4598 4.13695 14.4598 5.10249ZM3.0922 5.10249C3.0922 5.95766 5.48266 6.65091 8.43144 6.65091C11.3802 6.65091 13.7707 5.95766 13.7707 5.10249C13.7707 4.24732 11.3802 3.55407 8.43144 3.55407C5.48266 3.55407 3.0922 4.24732 3.0922 5.10249Z" fill="#FF5E00"/>
<path d="M16.9917 2.69136C16.9917 4.05644 13.1861 5.16306 8.4917 5.16306C3.79728 5.16306 -0.00830078 4.05644 -0.00830078 2.69136C-0.00830078 1.32628 3.79728 0.219666 8.4917 0.219666C13.1861 0.219666 16.9917 1.32628 16.9917 2.69136ZM1.01475 2.69136C1.01475 3.89214 4.36229 4.86557 8.4917 4.86557C12.6211 4.86557 15.9687 3.89214 15.9687 2.69136C15.9687 1.49058 12.6211 0.517155 8.4917 0.517155C4.36229 0.517155 1.01475 1.49058 1.01475 2.69136Z" fill="#FF5E00"/>
<path d="M13.0125 6.48973C13.0125 7.22221 10.9613 7.816 8.43093 7.816C5.9006 7.816 3.84937 7.22221 3.84937 6.48973C3.84937 5.75725 5.9006 5.16345 8.43093 5.16345C10.9613 5.16345 13.0125 5.75725 13.0125 6.48973ZM4.1704 6.48973C4.1704 7.17088 6.0779 7.72307 8.43093 7.72307C10.7839 7.72307 12.6914 7.17088 12.6914 6.48973C12.6914 5.80857 10.7839 5.25639 8.43093 5.25639C6.0779 5.25639 4.1704 5.80857 4.1704 6.48973Z" fill="#FF5E00"/>
</svg>
