<svg width="17" height="8" viewBox="0 0 17 8" fill="none" xmlns="http://www.w3.org/2000/svg">
<path d="M14.4598 5.09419C14.4598 6.05973 11.7608 6.84246 8.43144 6.84246C5.10207 6.84246 2.40308 6.05973 2.40308 5.09419C2.40308 4.12865 5.10207 3.34592 8.43144 3.34592C11.7608 3.34592 14.4598 4.12865 14.4598 5.09419ZM3.0922 5.09419C3.0922 5.94936 5.48266 6.64261 8.43144 6.64261C11.3802 6.64261 13.7707 5.94936 13.7707 5.09419C13.7707 4.23902 11.3802 3.54577 8.43144 3.54577C5.48266 3.54577 3.0922 4.23902 3.0922 5.09419Z" fill="#B240B4"/>
<path d="M16.9917 2.68306C16.9917 4.04814 13.1861 5.15476 8.4917 5.15476C3.79728 5.15476 -0.00830078 4.04814 -0.00830078 2.68306C-0.00830078 1.31798 3.79728 0.211365 8.4917 0.211365C13.1861 0.211365 16.9917 1.31798 16.9917 2.68306ZM1.01475 2.68306C1.01475 3.88384 4.36229 4.85727 8.4917 4.85727C12.6211 4.85727 15.9687 3.88384 15.9687 2.68306C15.9687 1.48228 12.6211 0.508855 8.4917 0.508855C4.36229 0.508855 1.01475 1.48228 1.01475 2.68306Z" fill="#B240B4"/>
<path d="M13.0125 6.48143C13.0125 7.21391 10.9613 7.8077 8.43093 7.8077C5.9006 7.8077 3.84937 7.21391 3.84937 6.48143C3.84937 5.74895 5.9006 5.15515 8.43093 5.15515C10.9613 5.15515 13.0125 5.74895 13.0125 6.48143ZM4.1704 6.48143C4.1704 7.16258 6.0779 7.71477 8.43093 7.71477C10.7839 7.71477 12.6914 7.16258 12.6914 6.48143C12.6914 5.80027 10.7839 5.24809 8.43093 5.24809C6.0779 5.24809 4.1704 5.80027 4.1704 6.48143Z" fill="#B240B4"/>
</svg>
