<svg width="17" height="8" viewBox="0 0 17 8" fill="none" xmlns="http://www.w3.org/2000/svg">
<path d="M14.4598 5.10661C14.4598 6.07216 11.7608 6.85488 8.43144 6.85488C5.10207 6.85488 2.40308 6.07216 2.40308 5.10661C2.40308 4.14107 5.10207 3.35834 8.43144 3.35834C11.7608 3.35834 14.4598 4.14107 14.4598 5.10661ZM3.0922 5.10661C3.0922 5.96178 5.48266 6.65503 8.43144 6.65503C11.3802 6.65503 13.7707 5.96178 13.7707 5.10661C13.7707 4.25144 11.3802 3.55819 8.43144 3.55819C5.48266 3.55819 3.0922 4.25144 3.0922 5.10661Z" fill="#73FF00"/>
<path d="M16.9917 2.69548C16.9917 4.06056 13.1861 5.16718 8.4917 5.16718C3.79728 5.16718 -0.00830078 4.06056 -0.00830078 2.69548C-0.00830078 1.3304 3.79728 0.223785 8.4917 0.223785C13.1861 0.223785 16.9917 1.3304 16.9917 2.69548ZM1.01475 2.69548C1.01475 3.89626 4.36229 4.86969 8.4917 4.86969C12.6211 4.86969 15.9687 3.89626 15.9687 2.69548C15.9687 1.4947 12.6211 0.521275 8.4917 0.521275C4.36229 0.521275 1.01475 1.4947 1.01475 2.69548Z" fill="#73FF00"/>
<path d="M13.0125 6.49385C13.0125 7.22633 10.9613 7.82012 8.43093 7.82012C5.9006 7.82012 3.84937 7.22633 3.84937 6.49385C3.84937 5.76137 5.9006 5.16757 8.43093 5.16757C10.9613 5.16757 13.0125 5.76137 13.0125 6.49385ZM4.1704 6.49385C4.1704 7.175 6.0779 7.72719 8.43093 7.72719C10.7839 7.72719 12.6914 7.175 12.6914 6.49385C12.6914 5.81269 10.7839 5.26051 8.43093 5.26051C6.0779 5.26051 4.1704 5.81269 4.1704 6.49385Z" fill="#73FF00"/>
</svg>
