<svg width="17" height="8" viewBox="0 0 17 8" fill="none" xmlns="http://www.w3.org/2000/svg">
<path d="M14.4598 5.09834C14.4598 6.06389 11.7608 6.84661 8.43144 6.84661C5.10207 6.84661 2.40308 6.06389 2.40308 5.09834C2.40308 4.1328 5.10207 3.35007 8.43144 3.35007C11.7608 3.35007 14.4598 4.1328 14.4598 5.09834ZM3.0922 5.09834C3.0922 5.95351 5.48266 6.64676 8.43144 6.64676C11.3802 6.64676 13.7707 5.95351 13.7707 5.09834C13.7707 4.24317 11.3802 3.54992 8.43144 3.54992C5.48266 3.54992 3.0922 4.24317 3.0922 5.09834Z" fill="#F13663"/>
<path d="M16.9917 2.68721C16.9917 4.05229 13.1861 5.15891 8.4917 5.15891C3.79728 5.15891 -0.00830078 4.05229 -0.00830078 2.68721C-0.00830078 1.32213 3.79728 0.215515 8.4917 0.215515C13.1861 0.215515 16.9917 1.32213 16.9917 2.68721ZM1.01475 2.68721C1.01475 3.88799 4.36229 4.86142 8.4917 4.86142C12.6211 4.86142 15.9687 3.88799 15.9687 2.68721C15.9687 1.48643 12.6211 0.513005 8.4917 0.513005C4.36229 0.513005 1.01475 1.48643 1.01475 2.68721Z" fill="#F13663"/>
<path d="M13.0125 6.48558C13.0125 7.21806 10.9613 7.81185 8.43093 7.81185C5.9006 7.81185 3.84937 7.21806 3.84937 6.48558C3.84937 5.7531 5.9006 5.1593 8.43093 5.1593C10.9613 5.1593 13.0125 5.7531 13.0125 6.48558ZM4.1704 6.48558C4.1704 7.16673 6.0779 7.71892 8.43093 7.71892C10.7839 7.71892 12.6914 7.16673 12.6914 6.48558C12.6914 5.80442 10.7839 5.25224 8.43093 5.25224C6.0779 5.25224 4.1704 5.80442 4.1704 6.48558Z" fill="#F13663"/>
</svg>
